<?xml version="1.0" encoding="UTF-8" standalone="no"?>
<svg width="32px" height="32px" viewBox="0 0 32 32" version="1.1" xmlns="http://www.w3.org/2000/svg" xmlns:xlink="http://www.w3.org/1999/xlink">
    <!-- Generator: Sketch 39.1 (31720) - http://www.bohemiancoding.com/sketch -->
    <title>Slice 1</title>
    <desc>Created with Sketch.</desc>
    <defs></defs>
    <g id="Page-1" stroke="none" stroke-width="1" fill="none" fill-rule="evenodd">
        <g id="Group">
            <rect id="Rectangle" fill="#FFFFFF" x="0" y="0" width="32" height="32"></rect>
            <g id="Group-11-Copy" transform="translate(3.446154, 3.446154)" fill="#B8E986">
                <path d="M0.468292907,2.99781332 C0.658517443,1.74482074 1.68883736,0.908493069 2.76591163,1.12907258 L22.2999888,5.1295554 C23.3787041,5.35047097 24.098581,6.5478592 23.9087436,7.7983022 L23.9087436,7.7983022 C23.718519,9.05129479 22.6881991,9.88762245 21.6111248,9.66704295 L2.07704765,5.66656012 C0.998332404,5.44564455 0.278455439,4.24825632 0.468292907,2.99781332 L0.468292907,2.99781332" id="Rectangle-3" transform="translate(12.188518, 5.398058) rotate(-5.000000) translate(-12.188518, -5.398058) "></path>
                <path d="M0.468292907,10.3638016 C0.658517443,9.11080903 1.68883736,8.27448136 2.76591163,8.49506087 L22.2999888,12.4955437 C23.3787041,12.7164593 24.098581,13.9138475 23.9087436,15.1642905 L23.9087436,15.1642905 C23.718519,16.4172831 22.6881991,17.2536107 21.6111248,17.0330312 L2.07704765,13.0325484 C0.998332404,12.8116328 0.278455439,11.6142446 0.468292907,10.3638016 L0.468292907,10.3638016" id="Rectangle-3" transform="translate(12.188518, 12.764046) rotate(-5.000000) translate(-12.188518, -12.764046) "></path>
                <path d="M4.79603656,18.4170102 C4.96018568,17.1854181 5.84799435,16.3630764 6.78056931,16.5806217 L18.1149852,19.2246432 C19.0468633,19.4420259 19.6688965,20.6191581 19.5050814,21.848244 L19.5050814,21.848244 C19.3409323,23.0798361 18.4531236,23.9021778 17.5205487,23.6846325 L6.18613276,21.0406109 C5.25425471,20.8232283 4.63222145,19.6460961 4.79603656,18.4170102 L4.79603656,18.4170102" id="Rectangle-3" transform="translate(12.150559, 20.132627) rotate(-8.000000) translate(-12.150559, -20.132627) "></path>
            </g>
        </g>
    </g>
</svg>